<?xml version="1.0"?>
<svg xmlns="http://www.w3.org/2000/svg" id="line" height="512px" viewBox="0 0 64 64" width="512px" class=""><g><path d="m38 28.369a36.362 36.362 0 0 0 -6.2.53l-7.212-5.21a1 1 0 0 0 -1.588.792l-.141 7.359c-6.186 3.209-9.859 8.26-9.859 13.594 0 9.41 11.215 17.066 25 17.066s25-7.656 25-17.066-11.215-17.065-25-17.065zm12 25.131h-24a1 1 0 0 1 0-2h24a1 1 0 0 1 0 2zm0-7h-24a1 1 0 0 1 0-2h24a1 1 0 0 1 0 2zm0-7h-24a1 1 0 0 1 0-2h24a1 1 0 0 1 0 2z" fill="#c4a2fc" data-original="#C4A2FC" class="active-path" style="fill:#59DB09" data-old_color="#c4a2fc"/><path d="m1 26.5v5a7.006 7.006 0 0 0 6 6.92v.08c0 5.514 4.486 9 10 9h3.142a4 4 0 0 0 3.858 3h4a4 4 0 0 0 0-8h-4a4 4 0 0 0 -3.858 3h-3.142c-4.411 0-8-2.589-8-7h2a4 4 0 0 0 8 0v-19a4 4 0 0 0 -8 0h-1a16 16 0 0 1 32 0h-1a4 4 0 0 0 -8 0v19a4 4 0 0 0 8 0h3a7.008 7.008 0 0 0 7-7v-5a7.008 7.008 0 0 0 -7-7 18 18 0 0 0 -36 0 7.008 7.008 0 0 0 -7 7zm38 12a2 2 0 0 1 -4 0v-19a2 2 0 0 1 4 0zm5-17a5.006 5.006 0 0 1 5 5v5a5.006 5.006 0 0 1 -5 5h-3v-15zm-22 25a2 2 0 0 1 2-2h4a2 2 0 0 1 0 4h-4a2 2 0 0 1 -2-2zm-9-27a2 2 0 0 1 4 0v19a2 2 0 0 1 -4 0zm-10 7a5.006 5.006 0 0 1 5-5h3v15h-3a5.006 5.006 0 0 1 -5-5z" fill="#151a6a" data-original="#151A6A" class=""/></g> </svg>
