<?xml version="1.0"?>
<svg xmlns="http://www.w3.org/2000/svg" id="line" height="512px" viewBox="0 0 64 64" width="512px" class=""><g><path d="m59.85 42.3c-2.917-6.7-2.053-12.6-2.053-14.773a14.205 14.205 0 0 0 -14.524-14.527c-9.122 0-16 6.448-16 15 0 5.047 1.4 9.4 2.96 13.781a20.5 20.5 0 0 1 .573 11.919l-2.027 8.053a1 1 0 0 0 .969 1.247h17.525a1 1 0 0 0 1-1v-8.483h4.966a3 3 0 0 0 3-3.05l-.08-4.775 2.662-.982a1.807 1.807 0 0 0 1.029-2.41zm-17.577-7.251a6.525 6.525 0 1 1 6.527-6.525 6.525 6.525 0 0 1 -6.527 6.525z" fill="#c4a2fc" data-original="#C4A2FC" class="" style="fill:#59DB09" data-old_color="#c4a2fc"/><g fill="#151a6a"><path d="m21 6a1 1 0 0 0 -1 1v3a1 1 0 1 0 2 0v-3a1 1 0 0 0 -1-1z" data-original="#151A6A" class="active-path" data-old_color="#151A6A" style="fill:#000066"/><path d="m26.293 9.3-2 2a1 1 0 0 0 1.414 1.414l2-2a1 1 0 1 0 -1.414-1.414z" data-original="#151A6A" class="active-path" data-old_color="#151A6A" style="fill:#000066"/><path d="m15.707 9.3a1 1 0 1 0 -1.414 1.414l2 2a1 1 0 0 0 1.414-1.414z" data-original="#151A6A" class="active-path" data-old_color="#151A6A" style="fill:#000066"/><path d="m19.058 1.109a16.988 16.988 0 0 0 -8.225 30.5 5.225 5.225 0 0 1 2.134 3.59 3 3 0 0 0 -1.967 2.801v2a3 3 0 0 0 3 3h.08a6.991 6.991 0 0 0 13.84 0h.08a3 3 0 0 0 3-3v-2a3 3 0 0 0 -1.971-2.8 5.03 5.03 0 0 1 2.082-3.547 16.831 16.831 0 0 0 6.889-13.653 17 17 0 0 0 -18.942-16.891zm1.942 45.891a5.009 5.009 0 0 1 -4.9-4h9.8a5.01 5.01 0 0 1 -4.9 4zm8-7a1 1 0 0 1 -1 1h-14a1 1 0 0 1 -1-1v-2a1 1 0 0 1 1-1h14a1 1 0 0 1 1 1zm.921-9.961a7.013 7.013 0 0 0 -2.889 4.961h-5.032v-3.19c0-3.832 2.641-5.646 3.645-9.81h1.355a3 3 0 1 0 -3-3c0 .183-.014.35-.022.524a10.012 10.012 0 0 0 -5.955 0c-.008-.172-.023-.339-.023-.524a3 3 0 1 0 -3 3h1.356c1 4.132 3.644 5.987 3.644 9.81v3.19h-5.039a7.2 7.2 0 0 0 -2.931-5 14.994 14.994 0 1 1 23.97-12 14.85 14.85 0 0 1 -6.079 12.041zm-11.621-8.505a8 8 0 0 1 5.409 0c-.563 2.344-1.76 3.842-2.7 5.911-.933-2.024-2.156-3.59-2.709-5.911zm-3.3-1.534a1 1 0 1 1 1-1c0 .348.02.676.044 1zm12 0h-1.044c.024-.324.044-.652.044-1a1 1 0 1 1 1 1z" data-original="#151A6A" class="active-path" data-old_color="#151A6A" style="fill:#000066"/></g></g> </svg>
