<?xml version="1.0"?>
<svg xmlns="http://www.w3.org/2000/svg" height="512px" viewBox="0 0 512 512" width="512px" class=""><g><path d="m512 256c0 68.109375-26.449219 132.210938-74.460938 180.5-47.96875 48.25-111.847656 75.058594-179.859374 75.488281-.351563.011719-.699219.011719-1.050782.011719h-.628906c-68.378906 0-132.671875-26.621094-181.019531-74.96875-48.351563-48.359375-74.980469-112.640625-74.980469-181.03125 0-68.378906 26.628906-132.660156 74.980469-181.019531 48.347656-48.351563 112.640625-74.980469 181.019531-74.980469.210938 0 .421875 0 .628906.0117188.351563 0 .699219 0 1.050782.0078124 68.011718.4296878 131.890624 27.2421878 179.859374 75.4921878 48.011719 48.289062 74.460938 112.386719 74.460938 180.488281zm0 0" fill="#a7eaf9" data-original="#A7EAF9" class="" style="fill:#59DB09" data-old_color="#a7eaf9"/><path d="m512 256c0 68.109375-26.449219 132.210938-74.460938 180.5-47.96875 48.25-111.847656 75.058594-179.859374 75.488281-.351563.011719-.699219.011719-1.050782.011719v-511.9882812c.351563 0 .699219 0 1.050782.0078124 68.011718.4296878 131.890624 27.2421878 179.859374 75.4921878 48.011719 48.289062 74.460938 112.386719 74.460938 180.488281zm0 0" fill="#76e1f7" data-original="#76E1F7" class="active-path" style="fill:#48B007" data-old_color="#76e1f7"/><path d="m256 87.640625c-93.109375 0-168.871094 75.75-168.871094 168.859375 0 93.121094 75.761719 168.871094 168.871094 168.871094 8.28125 0 15-6.722656 15-15 0-8.28125-6.71875-15-15-15-76.570312 0-138.871094-62.292969-138.871094-138.871094 0-76.570312 62.300782-138.859375 138.871094-138.859375s138.859375 62.289063 138.859375 138.859375c0 34.550781-12.910156 67.53125-35.550781 92.769531v-92.769531c0-28.480469-11.589844-54.308594-30.296875-73.019531-18.703125-18.699219-44.53125-30.289063-73.011719-30.289063-56.96875 0-103.308594 46.347656-103.308594 103.308594 0 56.96875 46.339844 103.320312 103.308594 103.320312 28.628906 0 54.578125-11.710937 73.308594-30.589843l.011718 53.289062c0 5.589844 3.109376 10.71875 8.078126 13.308594 4.960937 2.582031 10.960937 2.183594 15.542968-1.039063 45.027344-31.617187 71.917969-83.320312 71.917969-138.289062 0-93.109375-75.75-168.859375-168.859375-168.859375zm0 242.179687c-40.429688 0-73.308594-32.890624-73.308594-73.320312 0-40.421875 32.878906-73.308594 73.308594-73.308594 40.421875 0 73.308594 32.886719 73.308594 73.308594 0 40.429688-32.886719 73.320312-73.308594 73.320312zm0 0" fill="#fff" data-original="#FFF" class=""/><g fill="#ddebf0"><path d="m271 410.371094c0 8.277344-6.71875 15-15 15v-30c8.28125 0 15 6.71875 15 15zm0 0" data-original="#DDEBF0" class=""/><path d="m424.859375 256.5c0 54.96875-26.890625 106.671875-71.917969 138.289062-4.582031 3.222657-10.582031 3.621094-15.542968 1.039063-4.96875-2.589844-8.078126-7.71875-8.078126-13.308594l-.011718-53.289062c-18.730469 18.878906-44.679688 30.589843-73.308594 30.589843v-30c40.421875 0 73.308594-32.890624 73.308594-73.320312 0-40.421875-32.886719-73.308594-73.308594-73.308594v-30c28.480469 0 54.308594 11.589844 73.011719 30.289063 18.707031 18.710937 30.296875 44.539062 30.296875 73.019531v92.769531c22.640625-25.238281 35.550781-58.21875 35.550781-92.769531 0-76.570312-62.289063-138.859375-138.859375-138.859375v-30c93.109375 0 168.859375 75.75 168.859375 168.859375zm0 0" data-original="#DDEBF0" class=""/></g></g> </svg>
