<?xml version="1.0"?>
<svg xmlns="http://www.w3.org/2000/svg" id="line" width="512px" height="512px" viewBox="0 0 64 64" class=""><g><path d="M51,17H46.816a2.762,2.762,0,0,0-.358-2.635A2.961,2.961,0,0,0,41,16a2.966,2.966,0,0,0,.184,1H37a6,6,0,0,0-6,6H57A6,6,0,0,0,51,17Z" style="fill:#59DB09" data-original="#C4A2FC" class="" data-old_color="#C4A2FC"/><path d="M59,25H29a3.045,3.045,0,0,0-3,3.027v5.064a10.238,10.238,0,0,0,6.96,9.74A13.027,13.027,0,0,0,42,48.84V52H37.005a2,2,0,0,0-1.942,1.521l-1.728,7A2,2,0,0,0,35.277,63H52.723a2,2,0,0,0,1.942-2.479l-1.728-7A2,2,0,0,0,51,52H46V48.84a13.027,13.027,0,0,0,9.04-6.009A10.238,10.238,0,0,0,62,33.091V28.027A3.041,3.041,0,0,0,59,25ZM28,33.091V28.027a1,1,0,0,1,1-1h.014L31,27.054V36a12.944,12.944,0,0,0,.615,3.942A8.246,8.246,0,0,1,28,33.091Zm21.721,1.141L47.8,36.42l.27,2.9a1,1,0,0,1-1.391,1.011L44,39.179l-2.676,1.153a1,1,0,0,1-1.391-1.011l.27-2.9-1.924-2.188A1,1,0,0,1,38.81,32.6l2.843-.64L43.14,29.45a1,1,0,0,1,1.72,0l1.487,2.506,2.843.64A1,1,0,0,1,49.721,34.232ZM60,33.091a8.246,8.246,0,0,1-3.615,6.851A12.944,12.944,0,0,0,57,36V27.054l1.986-.027a1,1,0,0,1,1.014,1Z" style="fill:#59DB09" data-original="#C4A2FC" class="" data-old_color="#C4A2FC"/><path d="M37,1H5A3,3,0,0,0,2,4v8.823a3,3,0,0,0,1.543,2.622l14.279,7.933a14,14,0,1,0,6.356,0l14.279-7.933A3,3,0,0,0,40,12.823V4A3,3,0,0,0,37,1ZM26,3V20.078l-5,2.778-5-2.778V3ZM4,12.823V4A1,1,0,0,1,5,3h9V18.967L4.514,13.7A1,1,0,0,1,4,12.823ZM33,37A12,12,0,1,1,21,25,12.013,12.013,0,0,1,33,37Zm5-24.177a1,1,0,0,1-.514.874L28,18.967V3h9a1,1,0,0,1,1,1Z" style="fill:#000066" data-original="#151A6A" class="active-path" data-old_color="#151A6A"/><path d="M17.394,29.1a1,1,0,0,0-1.432.827l-.3,3.993-3.31,2.254a1,1,0,0,0,0,1.654l3.31,2.254.3,3.993a1,1,0,0,0,1.432.827L21,43.162,24.606,44.9a1,1,0,0,0,1.432-.827l.3-3.993,3.31-2.254a1,1,0,0,0,0-1.654l-3.31-2.254-.3-3.993a1,1,0,0,0-1.432-.827L21,30.838Zm6.759,2.439.225,3.01a1,1,0,0,0,.434.753L27.307,37l-2.495,1.7a1,1,0,0,0-.434.753l-.225,3.01-2.718-1.311a1,1,0,0,0-.87,0l-2.718,1.311-.225-3.01a1,1,0,0,0-.434-.753L14.693,37l2.495-1.7a1,1,0,0,0,.434-.753l.225-3.01,2.718,1.311a1,1,0,0,0,.87,0Z" style="fill:#000066" data-original="#151A6A" class="active-path" data-old_color="#151A6A"/></g> </svg>
