<?xml version="1.0" encoding="utf-8"?>
<svg id="master-artboard" viewBox="0 0 2271.999755859375 1678.4342041015625" version="1.1" xmlns="http://www.w3.org/2000/svg" x="0px" y="0px" width="2271.999755859375px" height="1678.4342041015625px" enable-background="new 0 0 2272 1872"><rect id="ee-background" x="0" y="0" width="2271.999755859375" height="1678.4342041015625" style="fill: white; fill-opacity: 0; pointer-events: none;"/>






<g id="_x31_" transform="matrix(1.5170097351074219, 0, 0, 1.5170097351074219, -546.5371704101562, -585.4144926071167)">
	
	
	
	
	
	<g transform="matrix(1.8105772733688354, 0, 0, 1.8105772733688354, -1965.639934380463, -1273.7090019806658)">
		<g>
			<path d="M 1733.522949 928.484009 H 1816.815948 V 1095.068008 H 1733.522949 V 928.484009 Z" fill="#DDBD03" style="fill: rgb(2, 2, 156);"/>
			<g>
				<path d="M 1733.522949 955.85199 H 1816.815948 V 975.485991 H 1733.522949 V 955.85199 Z" fill="#BC7646"/>
				<path d="M 1733.522949 1049.853027 H 1816.815948 V 1068.296028 H 1733.522949 V 1049.853027 Z" fill="#BC7646"/>
			</g>
			<path fill="#937731" d="M1785.879,1025.518v-27.482c0-2.268-1.839-4.106-4.107-4.106h-5.469c-2.269,0-4.107,1.839-4.107,4.106&#10;&#9;&#9;&#9;&#9;v27.482c0,2.269,1.839,4.107,4.107,4.107h5.469C1784.04,1029.625,1785.879,1027.786,1785.879,1025.518z"/>
		</g>
		<g>
			<path d="M 1786.953979 971.796997 H 1946.751984 V 1095.068001 H 1786.953979 V 971.796997 Z" fill="#EB4D26" style="fill: rgb(0, 0, 102);"/>
			<g>
				<path d="M 1901.666016 971.796997 H 1920.499016 V 1095.068001 H 1901.666016 V 971.796997 Z" fill="#774A2B"/>
				<path d="M 1812.635986 971.796997 H 1830.327986 V 1095.068001 H 1812.635986 V 971.796997 Z" fill="#774A2B"/>
			</g>
			<path fill="#5E3B23" d="M1853.672,1039.71h26.362c2.176,0,3.94-1.764,3.94-3.939v-5.247c0-2.176-1.765-3.939-3.94-3.939h-26.362&#10;&#9;&#9;&#9;&#9;c-2.176,0-3.94,1.764-3.94,3.939v5.247C1849.731,1037.946,1851.496,1039.71,1853.672,1039.71z"/>
		<path d="M 1803.948974609375 992.9673461914062" style="fill: rgb(235, 77, 38); fill-opacity: 1; stroke: rgb(0, 0, 0); stroke-opacity: 1; stroke-width: 0; paint-order: fill;"/></g>
		<g>
			<g>
				<path fill="#878789" d="M1414.439,1287.825c4.297,0,7.487-0.304,8.378-0.398c2.745-0.293,4.732-2.754,4.441-5.498&#10;&#9;&#9;&#9;&#9;&#9;c-0.292-2.746-2.761-4.747-5.499-4.441c-6.184,0.647-23.757,0.938-30.797-5.402c-1.927-1.734-2.824-3.799-2.824-6.494&#10;&#9;&#9;&#9;&#9;&#9;c0-19.858,19.037-68.693,19.23-69.185c1.006-2.57-0.262-5.469-2.831-6.476c-2.572-1.006-5.47,0.262-6.477,2.83&#10;&#9;&#9;&#9;&#9;&#9;c-0.813,2.077-19.917,51.104-19.917,72.83c0,5.501,2.123,10.318,6.141,13.932&#10;&#9;&#9;&#9;&#9;&#9;C1392.09,1286.542,1405.604,1287.825,1414.439,1287.825z"/>
			</g>
			<path fill="#E5DBB8" d="M1325.447,1318.189l78.74-41.144c13.671-7.144,20.159-21.45,23.516-37.104l9.856-72.845h-43.59&#10;&#9;&#9;&#9;&#9;c-15.181,0-27.486-12.307-27.486-27.486l0,0c0-15.181,12.306-27.486,27.486-27.486h207.397v54.973v289.856h-298.187v-101.661&#10;&#9;&#9;&#9;&#9;C1303.181,1339.656,1311.776,1325.333,1325.447,1318.189z" style="fill: rgb(89, 219, 9);"/>
			<g>
				<path fill="#AAAAAA" d="M1548.893,1121.148h456.441V1100.8c0-3.176-2.574-5.75-5.75-5.75h-444.941&#10;&#9;&#9;&#9;&#9;&#9;c-3.175,0-5.75,2.574-5.75,5.75V1121.148z"/>
				<g>
					<path fill="#BCBCBC" d="M1962.136,1095.05h8.884v-18.821c0-2.945-2.388-5.333-5.333-5.333h-3.551V1095.05z"/>
					<path fill="#BCBCBC" d="M1592.092,1095.05h-8.885v-18.821c0-2.945,2.388-5.333,5.333-5.333h3.552V1095.05z"/>
					<path d="M 1591.536011 1070.895996 H 1962.136017 V 1079.917996 H 1591.536011 V 1070.895996 Z" fill="#BCBCBC"/>
				</g>
			</g>
			<path fill="#4F0F0F" d="M1393.137,1167.098c-15.181,0-27.486-12.307-27.486-27.486l0,0c0-15.181,12.306-27.486,27.486-27.486&#10;&#9;&#9;&#9;&#9;h207.397v54.973h-163.808H1393.137z" style="fill-opacity: 1; fill: rgb(0, 0, 102);"/>
			<path d="M 1303.18103 1350.756958 H 1594.703033 V 1450.845955 H 1303.18103 V 1350.756958 Z" fill="#CCC3A8" style="fill: rgb(72, 179, 7);"/>
			<path fill="#E5DBB8" d="M1594.703,1383.657h495.516v-239.032c0-17.949-14.551-32.5-32.5-32.5h-463.016V1383.657z" style="fill: rgb(89, 219, 9);"/>
			<g>
				<g>
					<path d="M 1594.703003 1333.057007 H 2090.218994 V 1368.456005 H 1594.703003 V 1333.057007 Z" fill="#CCC3A8" style="fill: rgb(73, 179, 7);"/>
					<path d="M 1594.703003 1358.46106 H 2090.218994 V 1368.456059 H 1594.703003 V 1358.46106 Z" fill="#CCC3A8" style="fill: rgb(73, 179, 7);"/>
				</g>
				<g>
					<path d="M 1594.703003 1282.457031 H 2090.218994 V 1292.452031 H 1594.703003 V 1282.457031 Z" fill="#CCC3A8" style="fill: rgb(73, 179, 7);"/>
					<path d="M 1594.703003 1287.454956 H 2090.218994 V 1317.855955 H 1594.703003 V 1287.454956 Z" fill="#CCC3A8" style="fill: rgb(73, 179, 7);"/>
				</g>
				<g>
					<path d="M 1594.703003 1230.19104 H 2090.218994 V 1265.590038 H 1594.703003 V 1230.19104 Z" fill="#CCC3A8" style="fill: rgb(72, 179, 7);"/>
					<path d="M 1594.703003 1255.595947 H 2090.218994 V 1265.590947 H 1594.703003 V 1255.595947 Z" fill="#CCC3A8" style="fill: rgb(72, 179, 7);"/>
				</g>
				<g>
					<path d="M 1594.703003 1179.592041 H 2090.218994 V 1189.586041 H 1594.703003 V 1179.592041 Z" fill="#CCC3A8" style="fill: rgb(72, 179, 7);"/>
					<path d="M 1594.703003 1184.588989 H 2090.218994 V 1214.989988 H 1594.703003 V 1184.588989 Z" fill="#CCC3A8" style="fill: rgb(72, 179, 7);"/>
				</g>
			</g>
			<g>
				<path fill="#488284" d="M1754.911,1291.978h277.067c4.833,0,8.75-3.918,8.75-8.75V1164.74c0-4.832-3.917-8.75-8.75-8.75&#10;&#9;&#9;&#9;&#9;&#9;h-277.067c-4.833,0-8.75,3.918-8.75,8.75v118.487C1746.161,1288.06,1750.078,1291.978,1754.911,1291.978z"/>
				<g>
					<path fill="#5D9B98" d="M1977.151,1288.092l25.477-61.379c-72.789,0-111.003-66.837-111.003-66.837h137.028&#10;&#9;&#9;&#9;&#9;&#9;&#9;c5.727,0,10.369,4.642,10.369,10.369v107.478c0,5.727-4.643,10.369-10.369,10.369H1977.151z"/>
					<path fill="#5D9B98" d="M1809.738,1288.092l-25.477-61.379c72.789,0,111.003-66.837,111.003-66.837h-137.028&#10;&#9;&#9;&#9;&#9;&#9;&#9;c-5.727,0-10.369,4.642-10.369,10.369v107.478c0,5.727,4.643,10.369,10.369,10.369H1809.738z"/>
					<g>
						<path fill="#7AA6A7" d="M2039.022,1170.245v56.468h-36.395c-72.789,0-111.003-66.837-111.003-66.837h137.028&#10;&#9;&#9;&#9;&#9;&#9;&#9;&#9;C2034.38,1159.876,2039.022,1164.518,2039.022,1170.245z"/>
						<path fill="#7AA6A7" d="M1747.867,1170.245v56.468h36.395c72.789,0,111.003-66.837,111.003-66.837h-137.028&#10;&#9;&#9;&#9;&#9;&#9;&#9;&#9;C1752.51,1159.876,1747.867,1164.518,1747.867,1170.245z"/>
					</g>
				</g>
				<path fill="#4C4C4C" d="M1742.408,1274.979v-101.99c0-11.516,9.048-20.884,20.17-20.884h261.733&#10;&#9;&#9;&#9;&#9;&#9;c11.122,0,20.17,9.368,20.17,20.884v101.99c0,11.516-9.048,20.884-20.17,20.884h-261.733&#10;&#9;&#9;&#9;&#9;&#9;C1751.456,1295.862,1742.408,1286.494,1742.408,1274.979z M1762.578,1159.876c-6.984,0-12.665,5.882-12.665,13.112v101.99&#10;&#9;&#9;&#9;&#9;&#9;c0,7.23,5.681,13.113,12.665,13.113h261.733c6.983,0,12.665-5.883,12.665-13.113v-101.99c0-7.23-5.682-13.112-12.665-13.112&#10;&#9;&#9;&#9;&#9;&#9;H1762.578z"/>
			</g>
			<path d="M 1594.703003 1350.756958 H 2090.218994 V 1456.953957 H 1594.703003 V 1350.756958 Z" fill="#4F0F0F" style="fill: rgb(0, 0, 102);"/>
			<path fill="#488284" d="M1476.506,1194.584h77.563c4.962,0,8.984,3.421,8.984,7.642v91.331c0,4.22-4.022,7.642-8.984,7.642&#10;&#9;&#9;&#9;&#9;h-92.942c-5.469,0-9.669-4.121-8.894-8.726l15.38-91.331C1468.246,1197.379,1472.036,1194.584,1476.506,1194.584z"/>
			<path fill="#FF8800" d="M1319.976,1358.461h-16.795v34.081h16.795c2.991,0,5.417-2.426,5.417-5.417v-23.247&#10;&#9;&#9;&#9;&#9;C1325.393,1360.887,1322.967,1358.461,1319.976,1358.461z"/>
			<path d="M 1383.141968 1444.738037 H 2005.333984 V 1456.954037 H 1383.141968 V 1444.738037 Z" fill="#6E6E75"/>
			<path fill="#0F0F0F" d="M2011.188,1468.615h85.095c6.352,0,11.5-5.148,11.5-11.5v-26.976c0-6.352-5.148-11.5-11.5-11.5h-85.095&#10;&#9;&#9;&#9;&#9;c-6.351,0-11.5,5.148-11.5,11.5v26.976C1999.688,1463.467,2004.838,1468.615,2011.188,1468.615z"/>
			<path fill="#0F0F0F" d="M1298.208,1468.615h85.095c6.352,0,11.5-5.148,11.5-11.5v-26.976c0-6.352-5.148-11.5-11.5-11.5h-85.095&#10;&#9;&#9;&#9;&#9;c-6.352,0-11.5,5.148-11.5,11.5v26.976C1286.708,1463.467,1291.856,1468.615,1298.208,1468.615z"/>
			<g>
				<path d="M 1973.631943 1456.953979 A 67.416 67.416 0 0 1 1906.215942 1524.36998 A 67.416 67.416 0 0 1 1838.799942 1456.953979 A 67.416 67.416 0 0 1 1906.215942 1389.537979 A 67.416 67.416 0 0 1 1973.631943 1456.953979 Z" fill="#0F0F0F"/>
				<path d="M 1945.754944 1456.953979 A 39.539001 39.539001 0 0 1 1906.215942 1496.492981 A 39.539001 39.539001 0 0 1 1866.676941 1456.953979 A 39.539001 39.539001 0 0 1 1906.215942 1417.414978 A 39.539001 39.539001 0 0 1 1945.754944 1456.953979 Z" fill="#DDDCDB"/>
				<g>
					<path d="M 1931.316942 1456.953979 A 25.101 25.101 0 0 1 1906.215942 1482.054979 A 25.101 25.101 0 0 1 1881.114943 1456.953979 A 25.101 25.101 0 0 1 1906.215942 1431.85298 A 25.101 25.101 0 0 1 1931.316942 1456.953979 Z" fill="#B7B7B7"/>
					<path d="M 1918.431942 1456.953979 A 12.216 12.216 0 0 1 1906.215942 1469.169979 A 12.216 12.216 0 0 1 1893.999943 1456.953979 A 12.216 12.216 0 0 1 1906.215942 1444.73798 A 12.216 12.216 0 0 1 1918.431942 1456.953979 Z" fill="#565655"/>
				</g>
			</g>
			<g>
				<path d="M 1541.624008 1456.953979 A 67.416 67.416 0 0 1 1474.208008 1524.36998 A 67.416 67.416 0 0 1 1406.792007 1456.953979 A 67.416 67.416 0 0 1 1474.208008 1389.537979 A 67.416 67.416 0 0 1 1541.624008 1456.953979 Z" fill="#0F0F0F"/>
				<path d="M 1513.747009 1456.953979 A 39.539001 39.539001 0 0 1 1474.208008 1496.492981 A 39.539001 39.539001 0 0 1 1434.669006 1456.953979 A 39.539001 39.539001 0 0 1 1474.208008 1417.414978 A 39.539001 39.539001 0 0 1 1513.747009 1456.953979 Z" fill="#DDDCDB"/>
				<g>
					<path d="M 1499.309008 1456.953979 A 25.101 25.101 0 0 1 1474.208008 1482.054979 A 25.101 25.101 0 0 1 1449.107008 1456.953979 A 25.101 25.101 0 0 1 1474.208008 1431.85298 A 25.101 25.101 0 0 1 1499.309008 1456.953979 Z" fill="#B7B7B7"/>
					<path d="M 1486.424007 1456.953979 A 12.216 12.216 0 0 1 1474.208008 1469.169979 A 12.216 12.216 0 0 1 1461.992008 1456.953979 A 12.216 12.216 0 0 1 1474.208008 1444.73798 A 12.216 12.216 0 0 1 1486.424007 1456.953979 Z" fill="#565655"/>
				</g>
			</g>
			<path fill="#878789" d="M2001.1,1399.985h35.955c4.102,0,7.427-3.325,7.427-7.427v-17.803c0-4.103-3.325-7.428-7.427-7.428&#10;&#9;&#9;&#9;&#9;H2001.1c-4.102,0-7.427,3.325-7.427,7.428v17.803C1993.673,1396.66,1996.998,1399.985,2001.1,1399.985z"/>
			<g>
				<path d="M 2090.218994 1358.46106 H 2096.329994 V 1403.85606 H 2090.218994 V 1358.46106 Z" fill="#D6D6D6"/>
				<path fill="#FF8800" d="M2096.33,1403.855h6.911c3.313,0,6-2.687,6-6v-33.395c0-3.313-2.687-6-6-6h-6.911V1403.855z"/>
			</g>
			<path fill="#E1E1DF" d="M1393.777,1233.269l4.488,1.388c2.751,0.851,5.67-0.689,6.52-3.44l10.033-32.451&#10;&#9;&#9;&#9;&#9;c0.851-2.75-0.689-5.669-3.44-6.52l-6.249-1.933l-12.567,40.651C1392.261,1231.937,1392.806,1232.969,1393.777,1233.269z"/>
		<path d="M 1717.2344970703125 1381.4010009765625" style="fill: rgb(0, 0, 102); fill-opacity: 1; stroke: rgb(0, 0, 0); stroke-opacity: 1; stroke-width: 0; paint-order: fill;"/></g>
		<g>
			<path d="M 1600.256958 1011.776001 H 1766.840958 V 1095.068001 H 1600.256958 V 1011.776001 Z" fill="#DE8601" style="fill: rgb(72, 179, 7);"/>
			<g>
				<path d="M 1719.839966 1011.776001 H 1739.473967 V 1095.068001 H 1719.839966 V 1011.776001 Z" fill="#966139"/>
				<path d="M 1627.029053 1011.776001 H 1645.472054 V 1095.068001 H 1627.029053 V 1011.776001 Z" fill="#966139"/>
			</g>
			<path fill="#774A2B" d="M1669.808,1064.132h27.482c2.269,0,4.107-1.839,4.107-4.107v-5.47c0-2.268-1.839-4.106-4.107-4.106&#10;&#9;&#9;&#9;&#9;h-27.482c-2.269,0-4.107,1.839-4.107,4.106v5.47C1665.7,1062.293,1667.539,1064.132,1669.808,1064.132z"/>
		<path d="M 1615.07763671875 1053.5487060546875" style="fill: rgb(89, 219, 9); fill-opacity: 1; stroke: rgb(0, 0, 0); stroke-opacity: 1; stroke-width: 0; paint-order: fill;"/></g>
	</g>
	
	
	
</g>
</svg>