<?xml version="1.0"?>
<svg xmlns="http://www.w3.org/2000/svg" id="Capa_1" enable-background="new 0 0 508.996 508.996" height="512px" viewBox="0 0 508.996 508.996" width="512px" class=""><g><g><g><g><path d="m392.024 412.365c-25.82 41.879-75.329 62.969-123.351 52.27-53.977-12.025-112.67-44.746-163.17-95.246-50.508-50.508-83.228-109.201-95.252-163.18-10.697-48.022 10.391-97.531 52.27-123.351 9.388-5.788 21.523-4.369 29.321 3.43l57.921 57.92c10.865 10.865 8.741 29.026-4.339 37.09l-23.668 14.592c-9.933 6.124-13.977 18.543-9.519 29.327 9.677 23.403 27.162 55.792 58.458 85.902 27.993 26.931 57.17 42.548 79.067 51.581 10.75 4.434 23.131.344 29.233-9.554l14.598-23.677c8.064-13.08 26.225-15.204 37.09-4.339l57.912 57.912c7.799 7.799 9.218 19.933 3.43 29.321z" fill="#b5adb6" data-original="#B5ADB6" class="" style="fill:#000066" data-old_color="#b5adb6"/><g fill="#918291"><path d="m392.024 412.365.002-.003c5.788-9.388 4.369-21.523-3.43-29.321l-57.912-57.912c-10.865-10.865-29.026-8.741-37.09 4.339l-3.169 5.14v.008l91.58 91.58c3.634-4.317 6.994-8.925 10.019-13.831z" data-original="#918291" class="" style="fill:#003FA3" data-old_color="#918291"/><path d="m140.277 184.469.001.001 5.145-3.172c13.08-8.064 15.204-26.225 4.339-37.09l-57.92-57.92c-7.798-7.799-19.933-9.218-29.321-3.43-4.906 3.025-9.515 6.387-13.833 10.021z" data-original="#918291" class="" style="fill:#003FA3" data-old_color="#918291"/></g></g><path d="m494.366 127.072-81.298-81.298c-8.847-8.847-23.973-2.581-23.973 9.93v20.424c0 4.679-3.812 8.486-8.491 8.423-.775-.01-1.55-.016-2.327-.016-93.706 0-169.671 75.965-169.671 169.671 0 9.203.73 18.237 2.153 27.047 7.368-54.919 54.403-97.273 111.344-97.273 23.511 0 45.33 7.223 63.369 19.563 2.28 1.56 3.622 4.165 3.622 6.928v22.392c0 12.511 15.127 18.777 23.973 9.93l81.298-81.298c9.507-9.504 9.507-24.917.001-34.423z" fill="#7acaa6" data-original="#7ACAA6" class="" style="fill:#59DB09" data-old_color="#7acaa6"/><g><path d="m494.366 127.072-81.298-81.298c-7.98-7.981-21.067-3.661-23.554 6.446l74.852 74.852c9.506 9.506 9.506 24.918 0 34.424l-74.852 74.852c2.487 10.107 15.574 14.427 23.554 6.446l81.298-81.298c9.506-9.505 9.506-24.918 0-34.424z" fill="#57be92" data-original="#57BE92" class="active-path" style="fill:#48B505" data-old_color="#57be92"/></g></g><path d="m499.669 121.769-81.298-81.298c-6.278-6.278-15.274-8.067-23.479-4.669-8.202 3.398-13.298 11.024-13.298 19.903v20.423c0 .327-.152.546-.281.673-.172.169-.37.284-.605.25-.81-.011-1.62-.016-2.432-.016-26.919 0-52.774 5.885-76.848 17.491-3.731 1.799-5.298 6.282-3.499 10.013 1.8 3.732 6.284 5.298 10.013 3.499 22.688-10.938 47.1-16.359 72.561-15.987 4.312.049 8.301-1.567 11.347-4.573 3.06-3.02 4.745-7.05 4.745-11.35v-20.423c0-4.057 3.092-5.653 4.039-6.045.948-.393 4.263-1.45 7.131 1.418l81.298 81.298c3.181 3.181 4.933 7.41 4.933 11.908s-1.752 8.728-4.934 11.909l-81.296 81.297c-2.87 2.869-6.185 1.811-7.132 1.419-.947-.393-4.039-1.989-4.039-6.045v-22.392c0-5.265-2.575-10.169-6.889-13.118-19.96-13.656-43.337-20.874-67.603-20.874-44.844 0-84.782 25.104-105.29 62.626 4.389-46.677 28.951-89.671 67.574-117.145 3.375-2.401 4.165-7.083 1.764-10.458-2.4-3.375-7.08-4.167-10.459-1.764-46.704 33.221-74.587 87.228-74.587 144.467 0 9.5.757 19.002 2.249 28.243.588 3.638 3.729 6.304 7.402 6.304h.103c3.718-.05 6.838-2.817 7.333-6.502 6.942-51.748 51.614-90.771 103.911-90.771 21.23 0 41.678 6.312 59.135 18.254.22.15.356.433.356.737v22.392c0 8.879 5.096 16.505 13.298 19.903 8.204 3.397 17.2 1.607 23.479-4.67l81.296-81.298c6.015-6.014 9.327-14.01 9.327-22.516s-3.311-16.499-9.325-22.513zm-163.682 198.056c-6.811-6.81-16.201-10.076-25.771-8.956-9.565 1.12-17.951 6.463-23.006 14.662l-14.598 23.677c-4.215 6.838-12.621 9.596-19.989 6.558-28.694-11.836-54.509-28.677-76.727-50.053-24.527-23.596-43.613-51.644-56.728-83.362-3.064-7.413-.321-15.856 6.524-20.077l23.666-14.592c8.199-5.055 13.543-13.44 14.662-23.007 1.12-9.567-2.145-18.96-8.955-25.771l-57.92-57.92c-10.304-10.303-26.16-12.158-38.562-4.511-5.115 3.154-9.922 6.653-14.435 10.428-.152.115-.299.238-.443.366-34.585 29.213-50.8 75.569-40.775 120.573 12.86 57.732 47.404 116.988 97.269 166.852 29.92 29.919 62.868 54.136 97.932 71.979 3.692 1.877 8.208.41 10.086-3.283 1.878-3.691.408-8.207-3.283-10.086-33.182-16.885-65.73-40.819-94.127-69.216-47.876-47.875-80.987-104.522-93.236-159.508-8.304-37.278 3.915-75.612 30.838-101.371l79.857 79.858-10.446 6.441c-13.143 8.104-18.405 24.327-12.513 38.577 13.91 33.644 34.16 63.4 60.188 88.44 23.578 22.685 50.968 40.553 81.407 53.11 14.197 5.856 30.381.578 38.477-12.552l6.447-10.456 79.851 79.851c-25.759 26.925-64.096 39.144-101.373 30.839-13.438-2.994-27.243-7.336-41.031-12.907-3.843-1.55-8.213.304-9.764 4.145-1.552 3.841.304 8.212 4.145 9.764 14.551 5.878 29.148 10.468 43.389 13.64 8.863 1.975 17.776 2.932 26.604 2.932 42.066.193 82.665-22.414 104.764-58.589 7.646-12.401 5.792-28.258-4.51-38.561zm-275.999-226.253c2.095-1.509 4.247-2.96 6.47-4.33 6.458-3.984 14.718-3.016 20.081 2.349l57.92 57.92c3.548 3.547 5.247 8.439 4.664 13.421-.582 4.982-3.365 9.349-7.636 11.981l-.098.06zm325.672 314.825c-.007.011-.013.022-.02.033-1.37 2.222-2.82 4.372-4.328 6.467l-81.395-81.395.06-.098c2.633-4.27 7-7.053 11.981-7.636 4.981-.582 9.875 1.117 13.422 4.664l57.912 57.912c5.358 5.357 6.329 13.598 2.368 20.053z" data-original="#000000" class="" style="fill:#000000"/></g></g> </svg>
