<svg width="733" height="608" viewBox="0 0 733 608" fill="none" xmlns="http://www.w3.org/2000/svg">
<path d="M698.867 304.467H681.8V475.133H698.867V304.467Z" fill="#3E606F"/>
<path d="M255.133 381.267H221V569H255.133V381.267Z" fill="#91AAB4"/>
<path d="M442.867 313H289.267V483.667H442.867V313Z" fill="#91AAB4"/>
<path d="M647.667 142.333V193.533L664.733 176.467L681.8 193.533L698.867 176.467L715.933 193.533V142.333" fill="#CBDBD7"/>
<path d="M733 534.867H221V569H733V534.867Z" fill="#3E606F"/>
<path d="M562.333 278.867H221V313H562.333V278.867Z" fill="#91AAB4"/>
<path d="M323.4 313H562.333V330.067C562.333 395.773 508.573 449.533 442.867 449.533C377.16 449.533 323.4 395.773 323.4 330.067V313Z" fill="#CBDBD7"/>
<path d="M289.267 313H255.133V534.867H289.267V313Z" fill="#3E606F"/>
<path d="M511.133 483.667H255.133V534.867H511.133V483.667Z" fill="#CBDBD7"/>
<path d="M340.467 91.1333H238.067V278.867H340.467V91.1333Z" fill="#CBDBD7"/>
<path d="M357.533 57H221V91.1333H357.533V57Z" fill="#91AAB4"/>
<path d="M340.467 91.1333H306.333V142.333H340.467V91.1333Z" fill="#3E606F"/>
<path d="M280.733 150.867H263.667V167.933H280.733V150.867Z" fill="#3E606F"/>
<path d="M340.467 244.733H238.067V278.867H340.467V244.733Z" fill="#3E606F"/>
<path d="M545.267 244.733H374.6V278.867H545.267V244.733Z" fill="#3E606F"/>
<path d="M733 91.1333H630.6V142.333H733V91.1333Z" fill="#91AAB4"/>
<path d="M733 57H630.6V91.1333H733V57Z" fill="#3E606F"/>
<path d="M559.773 355.667C560.627 349.693 561.48 344.573 562.333 338.6H324.253C324.253 341.16 325.107 343.72 325.107 346.28C325.107 347.133 325.107 347.987 325.96 348.84C325.96 351.4 326.813 353.107 326.813 355.667H559.773V355.667Z" fill="#3E606F"/>
<path d="M690.333 466.6C714.227 466.6 733 485.373 733 509.267V534.867H647.667V509.267C647.667 485.373 666.44 466.6 690.333 466.6Z" fill="#193441"/>
<path d="M733 509.267H647.667C647.667 503.293 648.52 497.32 651.08 492.2H729.587C732.147 497.32 733 503.293 733 509.267Z" fill="#3E606F"/>
<path d="M690.333 313C699.759 313 707.4 305.359 707.4 295.933C707.4 286.508 699.759 278.867 690.333 278.867C680.908 278.867 673.267 286.508 673.267 295.933C673.267 305.359 680.908 313 690.333 313Z" fill="#CBDBD7"/>
<path d="M285.44 524.3C286.71 521.848 285.752 518.83 283.3 517.56L243.341 496.864C240.889 495.594 237.872 496.552 236.602 499.004C235.332 501.456 236.29 504.473 238.742 505.743L274.261 524.14L255.864 559.659C254.594 562.111 255.552 565.128 258.004 566.398C260.456 567.668 263.473 566.71 264.743 564.258L285.44 524.3ZM134.513 573.765L282.513 526.765L279.487 517.235L131.487 564.235L134.513 573.765Z" fill="#D15252"/>
<path d="M227.756 136.682C230.341 135.712 231.651 132.83 230.682 130.244L214.881 88.1096C213.911 85.524 211.029 84.2139 208.444 85.1835C205.858 86.1531 204.548 89.0352 205.518 91.6208L219.563 129.074L182.11 143.119C179.524 144.089 178.214 146.971 179.184 149.556C180.153 152.142 183.035 153.452 185.621 152.482L227.756 136.682ZM58.931 61.5518L223.931 136.552L228.069 127.448L63.069 52.4482L58.931 61.5518Z" fill="#D15252"/>
<path d="M460.39 255.935C461.458 258.481 464.389 259.679 466.935 258.61L508.429 241.196C510.975 240.127 512.173 237.197 511.104 234.651C510.036 232.104 507.105 230.906 504.559 231.975L467.675 247.455L452.196 210.571C451.127 208.025 448.197 206.827 445.651 207.896C443.104 208.964 441.906 211.895 442.975 214.441L460.39 255.935ZM516.372 115.108L460.372 252.108L469.628 255.892L525.628 118.892L516.372 115.108Z" fill="#D15252"/>
<path d="M15.744 17.2V62H11.136V21.296H0.576V17.2H15.744ZM29.909 62.32C28.9703 62.32 28.1597 61.9787 27.477 61.296C26.837 60.6133 26.517 59.7813 26.517 58.8C26.517 57.8187 26.837 57.008 27.477 56.368C28.1597 55.6853 28.9703 55.344 29.909 55.344C30.8477 55.344 31.6583 55.6853 32.341 56.368C33.0237 57.008 33.365 57.8187 33.365 58.8C33.365 59.7813 33.0237 60.6133 32.341 61.296C31.6583 61.9787 30.8477 62.32 29.909 62.32Z" fill="#3E606F"/>
<path d="M544.92 96.904V101H513.496V97.736L532.12 79.496C534.467 77.192 536.045 75.208 536.856 73.544C537.709 71.8373 538.136 70.1307 538.136 68.424C538.136 65.7787 537.219 63.7307 535.384 62.28C533.592 60.7867 531.011 60.04 527.64 60.04C522.392 60.04 518.317 61.704 515.416 65.032L512.152 62.216C513.901 60.168 516.12 58.5893 518.808 57.48C521.539 56.3707 524.611 55.816 528.024 55.816C532.589 55.816 536.195 56.904 538.84 59.08C541.528 61.2133 542.872 64.1573 542.872 67.912C542.872 70.216 542.36 72.4347 541.336 74.568C540.312 76.7013 538.371 79.1547 535.512 81.928L520.28 96.904H544.92ZM554.784 101.32C553.845 101.32 553.035 100.979 552.352 100.296C551.712 99.6133 551.392 98.7813 551.392 97.8C551.392 96.8187 551.712 96.008 552.352 95.368C553.035 94.6853 553.845 94.344 554.784 94.344C555.723 94.344 556.533 94.6853 557.216 95.368C557.899 96.008 558.24 96.8187 558.24 97.8C558.24 98.7813 557.899 99.6133 557.216 100.296C556.533 100.979 555.723 101.32 554.784 101.32Z" fill="#3E606F"/>
<path d="M91.56 566.4C96.2533 566.656 99.816 567.936 102.248 570.24C104.723 572.501 105.96 575.467 105.96 579.136C105.96 581.696 105.341 583.979 104.104 585.984C102.867 587.947 101.032 589.504 98.6 590.656C96.168 591.808 93.2027 592.384 89.704 592.384C86.4613 592.384 83.3893 591.872 80.488 590.848C77.6293 589.781 75.3253 588.373 73.576 586.624L75.816 582.976C77.3093 584.512 79.2933 585.771 81.768 586.752C84.2427 587.691 86.888 588.16 89.704 588.16C93.3733 588.16 96.2107 587.371 98.216 585.792C100.221 584.171 101.224 581.952 101.224 579.136C101.224 576.363 100.221 574.187 98.216 572.608C96.2107 571.029 93.1813 570.24 89.128 570.24H85.928V566.848L98.344 551.296H75.432V547.2H104.232V550.464L91.56 566.4ZM115.909 592.32C114.97 592.32 114.16 591.979 113.477 591.296C112.837 590.613 112.517 589.781 112.517 588.8C112.517 587.819 112.837 587.008 113.477 586.368C114.16 585.685 114.97 585.344 115.909 585.344C116.848 585.344 117.658 585.685 118.341 586.368C119.024 587.008 119.365 587.819 119.365 588.8C119.365 589.781 119.024 590.613 118.341 591.296C117.658 591.979 116.848 592.32 115.909 592.32Z" fill="#3E606F"/>
</svg>
